# xmcd CD database file
#
# Track frame offsets:
#	150
#	21320
#	42077
#	64177
#	82060
#	104105
#	125690
#	145175
#
# Disc length: 2184 seconds
#
# Revision: 0
# Processed by: cddbd v1.4PL0 Copyright (c) Steve Scherf et al.
# Submitted via: NeoAudio 9.9.9
#
DISCID=75088608
DTITLE=Edgar Joel - No Jueges más (con Mi Amor)
DYEAR=1995
DGENRE=Salsa
TTITLE0=No Jueges más (con Mi Amor)
TTITLE1=Pienso en Ti
TTITLE2=Urgencia
TTITLE3=Me Cuesta Creer
TTITLE4=No Puedo Sin Ti
TTITLE5=Por un Beso
TTITLE6=A Mi Manera
TTITLE7=Quédate un Poquito más
EXTD=YEAR: 1995
EXTT0=
EXTT1=
EXTT2=
EXTT3=
EXTT4=
EXTT5=
EXTT6=
EXTT7=
PLAYORDER=
